<?xml version="1.0" encoding="UTF-8" standalone="no"?>
<svg
   version="1.1"
   id="Layer_1"
   x="0px"
   y="0px"
   width="100%"
   viewBox="0 0 1024 1024"
   enable-background="new 0 0 1024 1024"
   xml:space="preserve"
   sodipodi:docname="Gemini_Generated_Image_p7kd2dp7kd2dp7kd.svg"
   inkscape:version="1.4.2 (ebf0e940d0, 2025-05-08)"
   xmlns:inkscape="http://www.inkscape.org/namespaces/inkscape"
   xmlns:sodipodi="http://sodipodi.sourceforge.net/DTD/sodipodi-0.dtd"
   xmlns="http://www.w3.org/2000/svg"
   xmlns:svg="http://www.w3.org/2000/svg"><defs
   id="defs16" /><sodipodi:namedview
   id="namedview16"
   pagecolor="#ffffff"
   bordercolor="#000000"
   borderopacity="0.25"
   inkscape:showpageshadow="2"
   inkscape:pageopacity="0.0"
   inkscape:pagecheckerboard="0"
   inkscape:deskcolor="#d1d1d1"
   inkscape:zoom="0.50909424"
   inkscape:cx="79.553051"
   inkscape:cy="343.74775"
   inkscape:window-width="1920"
   inkscape:window-height="1131"
   inkscape:window-x="0"
   inkscape:window-y="0"
   inkscape:window-maximized="1"
   inkscape:current-layer="Layer_1" />
<path
   fill="#000000"
   opacity="1"
   stroke="none"
   d="M 21.815029,497.88111 C 22.42427,464.13649 27.072256,431.54599 34.587353,399.32918 53.679447,317.48256 92.290336,245.76191 148.11549,183.35807 185.00883,142.1171 228.17547,108.47984 276.71476,81.716332 318.46505,58.69614 362.67754,42.495239 409.14518,32.170626 453.16245,22.390482 497.79692,19.241712 542.6338,21.995401 c 70.09917,4.305195 136.69928,22.322493 198.80919,55.499512 56.44526,30.151157 105.78653,69.268637 146.93264,118.502407 33.703,40.32781 60.80678,84.62825 80.53772,133.35906 15.05212,37.17541 25.0161,75.69624 30.59661,115.4366 4.93474,35.14208 6.20644,70.38241 3.41234,105.68581 -4.71778,59.60861 -19.08065,116.80298 -44.69954,170.99806 -26.5339,56.13096 -61.8843,105.95443 -107.17148,148.50291 -54.76589,51.45406 -117.64302,89.33643 -189.40091,112.23241 -25.28694,8.06855 -51.01918,14.2913 -77.25611,17.95963 -40.10027,5.6066 -80.35707,5.9876 -120.71509,2.2534 -29.6166,-2.74044 -58.60256,-8.32549 -87.14249,-16.55369 C 322.28793,970.23117 272.36145,945.83041 226.59734,912.74276 165.40828,868.50257 116.75583,813.20956 80.460123,747.11408 62.292012,714.02935 48.713366,679.07269 38.708429,642.58953 25.751756,595.34265 20.819338,547.31206 21.815029,497.88111 M 576.66343,58.802147 c -3.32839,-0.449201 -6.64738,-0.991193 -9.98671,-1.333078 -29.93903,-3.065197 -59.77589,-4.302826 -89.967,-1.669051 C 440.67366,58.943693 405.4628,65.41994 371.23495,76.632956 288.93579,103.59405 219.41151,150.03137 163.28358,216.06198 91.708102,300.26555 56.343869,398.1903 54.000354,508.31092 c -0.609356,28.6334 2.340896,57.01202 7.207154,85.26035 11.055636,64.17702 34.980623,123.08236 71.627582,176.8118 30.14863,44.20205 66.95374,82.06199 110.12913,113.66152 44.58477,32.63089 93.5875,56.43224 146.78262,71.11997 46.01772,12.706 92.89432,18.67902 140.84917,16.14643 24.18277,-1.27716 48.15734,-3.35598 71.86215,-8.17627 88.2687,-17.9487 164.81515,-58.29793 229.58517,-120.84196 63.66823,-61.48038 106.16277,-135.33366 126.9428,-221.31011 10.4095,-43.06875 14.91033,-86.90679 12.1761,-131.3442 -1.2656,-20.56905 -3.22784,-41.07322 -7.16934,-61.25373 -5.92285,-30.32456 -14.12178,-60.027 -25.88164,-88.74979 C 909.30976,269.28923 865.2921,210.17057 807.42682,161.23555 767.05725,127.09611 721.66512,101.41087 672.27616,82.724284 641.70113,71.156052 610.12149,63.49725 576.66343,58.802147 Z"
   id="path1"
   style="stroke-width:1.26244;fill:#0d3a60;fill-opacity:1" />
<path
   fill="#000000"
   opacity="1"
   stroke="none"
   d="m 413.3321,151.74573 c 34.91142,-7.65115 69.62829,-11.96078 104.92245,-11.1914 59.93045,1.30644 117.69718,12.31358 172.35612,37.68486 3.59661,1.66944 5.46246,3.9075 5.85273,8.05066 2.93912,31.20382 4.96207,62.46697 4.45807,93.80494 -0.77886,48.43138 -8.57525,95.42491 -31.04713,139.04497 -20.14557,39.10432 -48.32555,71.7107 -81.6933,100.02021 -21.86246,18.54833 -45.13924,35.07602 -70.48189,48.61149 -2.80605,1.49869 -5.14677,2.24079 -8.18814,0.54038 -68.61763,-38.3645 -124.88078,-88.94828 -158.76898,-161.37504 -13.9568,-29.8288 -20.59001,-61.64258 -23.41855,-94.33402 -2.98146,-34.45925 -1.86007,-68.87965 0.73793,-103.29228 0.55359,-7.33319 1.30517,-14.65148 1.85845,-21.98469 0.38546,-5.10888 2.78863,-8.04087 7.69234,-10.19952 24.32027,-10.706 49.43473,-18.93271 75.7199,-25.38056 m 247.53178,191.70654 c 3.1682,-12.89729 5.09091,-26.07693 5.52018,-39.25034 1.0406,-31.9359 1.70749,-63.90656 -2.01495,-95.77824 -0.45191,-3.86922 -1.56903,-5.93645 -5.28716,-7.38166 -39.7157,-15.43719 -80.78414,-24.24967 -123.37454,-26.31086 -24.00686,-1.16183 -47.84697,-0.091 -71.73832,2.36977 -33.5108,3.45156 -65.64249,12.0556 -97.05447,23.86551 -3.79823,1.42802 -5.02642,3.80519 -5.19763,7.58719 -0.37991,8.39376 -1.13792,16.76964 -1.60124,25.16054 -1.81056,32.79216 -1.99657,65.52811 3.04977,98.12012 5.05157,32.6256 16.09807,63.04071 33.66185,90.97254 28.12112,44.72134 66.4247,78.87526 111.09912,106.3796 3.82677,2.35598 6.74986,1.98829 10.35595,-0.18808 18.96896,-11.44811 36.68519,-24.57859 53.22043,-39.29568 44.30761,-39.43542 76.872,-86.09342 89.36101,-146.25041 z"
   id="path2"
   style="stroke-width:1.26244;fill:#1f7bb7;fill-opacity:1" />
<path
   fill="#000000"
   opacity="1"
   stroke="none"
   d="m 424.78128,740.4415 c -7.48445,1.03775 -11.95338,-1.69086 -15.41904,-7.85142 -3.90121,-6.93471 -9.17689,-13.0831 -13.33911,-19.88882 -2.90818,-4.75511 -6.42894,-6.43872 -11.97118,-5.90166 -10.9629,1.06233 -10.99053,0.80806 -11.05525,11.95273 -0.0293,5.04737 -0.14833,10.09713 -0.0342,15.14142 0.10063,4.44728 -1.66146,6.59745 -6.32908,6.46045 -6.72451,-0.19726 -13.45919,-0.15334 -20.18779,-0.0697 -4.63221,0.0575 -6.79332,-1.65456 -6.77425,-6.68667 0.13388,-35.33145 0.0528,-70.66359 0.065,-105.99558 10e-4,-2.95137 -0.27181,-6.39426 4.13071,-6.30102 22.47053,0.47595 45.11562,-2.2992 67.38416,1.48682 32.53044,5.53041 46.45716,43.72963 25.72514,68.84366 -3.40093,4.11981 -7.90362,6.77552 -12.69459,9.90011 7.12268,13.00597 16.95941,24.0628 24.58541,38.9091 -8.70274,0 -16.09265,0 -24.08584,6.2e-4 m -12.9993,-83.50844 c -2.45997,-5.34549 -7.15775,-7.85457 -12.51822,-8.28291 -7.29849,-0.58322 -14.67298,-0.19864 -22.01453,-0.26645 -3.28474,-0.0303 -4.35147,1.83048 -4.42186,4.78893 -0.18955,7.96584 -0.39979,15.93191 -0.69556,23.89429 -0.11708,3.1507 1.16174,4.70063 4.37751,4.6866 6.70413,-0.0293 13.39613,0.42264 20.09726,-0.61997 14.19894,-2.20896 18.88428,-9.0623 15.1754,-24.20049 z"
   id="path3"
   style="stroke-width:1.26244;fill:#0e3a60;fill-opacity:1" />
<path
   fill="#000000"
   opacity="1"
   stroke="none"
   d="m 577.74603,636.75151 c -0.007,17.86325 0.0464,35.10006 -0.0354,52.33617 -0.18068,38.06984 -25.65178,56.03696 -62.43676,53.13976 -3.54514,-0.27916 -7.11668,-0.79951 -10.56338,-1.65911 -24.09485,-6.00954 -38.39004,-23.80922 -38.70106,-48.67452 -0.26819,-21.43721 0.0514,-42.88159 -0.17102,-64.3198 -0.0528,-5.08243 1.87921,-6.63089 6.67581,-6.43363 6.71511,0.27616 13.4597,0.29056 20.17327,-0.003 4.97802,-0.21783 6.66653,1.80428 6.62819,6.63382 -0.14355,18.07607 -0.0458,36.15407 -0.0181,54.23137 0.006,3.78293 -0.0508,7.57472 0.17869,11.34678 0.74888,12.30903 8.46183,20.13509 20.7388,21.20598 11.99488,1.04615 21.30737,-5.78978 24.0705,-17.56167 0.87155,-3.71319 1.21267,-7.44719 1.21159,-11.24576 -0.005,-19.12816 0.1944,-38.25885 -0.0737,-57.383 -0.077,-5.49652 1.58784,-7.61556 7.17551,-7.2588 6.0711,0.38758 12.19999,0.3452 18.27764,0.013 5.15686,-0.28201 7.41414,1.5433 6.90112,6.81212 -0.26345,2.70658 -0.0373,5.46084 -0.0317,8.82036 z"
   id="path4"
   style="stroke-width:1.26244;fill:#0e3a60;fill-opacity:1" />
<path
   fill="#000000"
   opacity="1"
   stroke="none"
   d="m 598.90362,671.61016 c -7.77791,-20.48267 0.33749,-39.75384 20.77601,-47.79411 22.07313,-8.68328 44.09479,-6.00753 65.72763,2.52657 5.37354,2.11989 6.21057,5.4237 3.73254,10.40296 -1.95862,3.93542 -3.76551,8.02995 -4.94343,12.24823 -1.34943,4.8327 -3.5906,5.48734 -7.75872,3.21597 -10.6805,-5.82037 -22.27786,-7.2608 -34.23382,-6.64792 -2.72114,0.13939 -5.47779,0.20688 -7.95174,1.64393 -3.2434,1.8841 -5.85104,4.32661 -5.90521,8.3246 -0.0562,4.14037 2.65634,6.38886 6.18268,7.8961 8.38285,3.58305 17.43822,4.65486 26.14447,7.02903 5.2645,1.43565 10.53533,2.72475 15.6203,4.85435 27.90144,11.68535 21.50109,45.66536 5.15617,56.85719 -9.13889,6.25772 -19.32833,9.49411 -30.06485,10.44179 -17.98138,1.58714 -35.10738,-2.07389 -51.28255,-10.24823 -4.66642,-2.35837 -5.96122,-5.3206 -3.67251,-10.07656 2.54468,-5.28793 3.45838,-12.82335 7.59321,-15.49718 4.70903,-3.04529 10.26372,3.49637 15.64689,5.36823 10.33415,3.59345 20.81601,4.96592 31.64692,3.8797 1.64924,-0.16528 3.29918,-0.67275 4.86522,-1.24911 3.61163,-1.32901 6.20016,-3.78138 6.50783,-7.74747 0.32825,-4.22999 -2.64454,-6.47925 -5.99759,-8.03942 -7.31474,-3.4036 -15.38552,-4.16589 -23.08645,-6.22097 -6.31768,-1.68608 -12.51545,-3.62805 -18.50041,-6.19916 -6.95837,-2.98928 -12.57139,-7.58266 -16.20259,-14.96852 z"
   id="path5"
   style="stroke-width:1.26244;fill:#0e3a60;fill-opacity:1" />
<path
   fill="#000000"
   opacity="1"
   stroke="none"
   d="m 365.28891,845.35401 c -30.16183,-0.24279 -59.17287,3.87254 -88.24879,11.01484 0.41331,-3.54484 2.83552,-3.92802 4.85574,-4.68553 31.3404,-11.75147 63.76382,-18.0414 97.17741,-19.6945 45.6624,-2.25912 90.56786,3.05331 135.25411,12.04889 41.85523,8.42569 84.00327,15.17856 126.91413,14.3339 35.00944,-0.68908 69.63508,-4.29417 103.014,-15.8359 1.47865,-0.51132 3.09145,-1.45954 5.16357,-0.1484 -1.65727,3.03166 -4.81344,3.91214 -7.44643,5.16048 -28.62327,13.57008 -59.06877,20.49793 -90.32271,24.2579 -52.68622,6.33817 -104.40134,-0.25597 -155.72072,-11.95727 -42.78361,-9.75494 -86.0693,-15.08125 -130.64031,-14.49441 z"
   id="path6"
   style="stroke-width:1.26244;fill:#257db8;fill-opacity:1" />
<path
   fill="#000000"
   opacity="1"
   stroke="none"
   d="m 307.21501,648.34486 c -18.69874,-0.0374 -18.74651,-0.0375 -18.79786,18.10913 -0.0619,21.85784 -0.16324,43.71715 0.0424,65.57307 0.0574,6.09298 -1.80262,8.96799 -8.3194,8.45689 -5.85223,-0.459 -11.76826,-0.35675 -17.64545,-0.16859 -5.1603,0.16497 -7.00102,-1.99321 -6.97621,-7.12919 0.12178,-25.21991 0.0106,-50.44112 -0.0708,-75.66172 -0.0297,-9.19438 -0.096,-9.19053 -9.51619,-9.19538 -6.51539,-0.003 -13.05428,-0.36762 -19.53958,0.0693 -6.52679,0.43959 -8.78592,-2.25658 -8.08242,-8.46083 0.3059,-2.6974 0.0499,-5.4586 0.0469,-8.19083 -0.0115,-10.5667 -0.0118,-10.56362 10.89506,-10.56123 29.63455,0.006 59.27057,0.1649 88.90255,-0.11088 6.24266,-0.0579 8.9762,1.64463 8.36694,8.14669 -0.40985,4.37469 -0.2057,8.8256 -0.0224,13.23181 0.18216,4.37986 -1.81179,6.0758 -6.04605,5.92015 -4.19771,-0.15441 -8.40574,-0.03 -13.23748,-0.0284 z"
   id="path7"
   style="stroke-width:1.26244;fill:#0e3a60;fill-opacity:1" />
<path
   fill="#000000"
   opacity="1"
   stroke="none"
   d="m 736.15945,670.81836 c -0.005,-6.0973 -0.16659,-11.57 0.0381,-17.02884 0.15642,-4.16873 -1.66728,-5.53234 -5.64476,-5.45752 -8.61741,0.16204 -17.24274,-0.0875 -25.85991,0.0823 -4.59754,0.0905 -6.51593,-1.83032 -6.374,-6.37554 0.1575,-5.04113 0.1746,-10.09636 -0.012,-15.13572 -0.16466,-4.44666 1.8959,-5.78138 6.10439,-5.76681 31.95914,0.11026 63.91881,0.11565 95.87802,0.0324 4.25604,-0.0111 6.18622,1.4671 6.00299,5.8797 -0.21775,5.24772 -0.18138,10.51407 -0.0354,15.76633 0.11443,4.11996 -1.84981,5.60408 -5.74262,5.55893 -7.98865,-0.0928 -15.9927,0.25843 -23.96432,-0.12067 -5.51932,-0.26244 -7.28654,1.62297 -7.23507,7.19169 0.23332,25.22861 0.10965,50.461 0.0244,75.69169 -0.0305,9.03249 -0.34127,9.24184 -9.1785,9.27705 -5.4667,0.0218 -10.94603,-0.23616 -16.39685,0.0572 -5.80974,0.31253 -7.7091,-2.20211 -7.65416,-7.8367 0.19895,-20.39322 0.0611,-40.78967 0.0496,-61.81549 z"
   id="path8"
   style="stroke-width:1.26244;fill:#0e3a60;fill-opacity:1" />
<path
   fill="#000000"
   opacity="1"
   stroke="none"
   d="m 472.1536,864.21433 c 22.90731,5.78084 45.34367,11.30987 68.24843,14.49841 23.97943,3.33802 48.07243,4.40791 72.25312,2.44914 1.73716,-0.1407 3.74232,-1.2307 5.6131,1.49044 -8.74215,3.65633 -17.8211,4.60084 -26.81645,5.65532 -40.54579,4.75349 -79.97389,-1.35914 -118.83857,-12.57524 -28.55531,-8.24084 -57.66922,-13.19853 -87.31518,-15.11669 -1.19818,-0.0776 -2.55084,0.18177 -4.216,-2.58144 31.13432,-4.08836 60.91943,-0.38264 91.07155,6.18006 z"
   id="path9"
   style="stroke-width:1.26244;fill:#257db8;fill-opacity:1" />
<path
   fill="#000000"
   opacity="1"
   stroke="none"
   d="m 425.93003,774.83151 c 0.66558,4.80673 -1.80409,8.05422 -3.97275,11.47592 2.15433,2.66458 4.7573,4.77607 5.71831,8.22605 2.01494,7.2336 -1.06946,13.90086 -8.22296,15.91134 -10.28241,2.88988 -20.83704,1.80389 -31.30935,1.36723 -3.14119,-0.13092 -4.14415,-2.28694 -4.1344,-5.20872 0.0421,-12.6016 0.0539,-25.2035 0.006,-37.80501 -0.0131,-3.41515 1.48201,-4.99706 4.92247,-4.95576 7.77001,0.0932 15.55963,-0.22592 23.30614,0.22561 6.54255,0.38126 11.60826,3.4815 13.687,10.76334 m -17.57654,28.24941 c 3.83329,-0.15396 8.23595,-0.10495 8.18155,-5.38579 -0.0533,-5.17097 -4.43468,-5.26883 -8.26368,-5.42609 -2.70842,-0.11134 -5.43164,0.0643 -8.13378,-0.11088 -4.12254,-0.26707 -5.38144,1.66273 -5.45383,5.60493 -0.0781,4.25757 1.77858,5.56324 5.65147,5.31351 2.28455,-0.14725 4.5881,-8e-5 8.01827,0.004 m -1.24876,-30.03034 c -2.50219,-0.005 -5.00464,0.0123 -7.50645,-0.0212 -3.41172,-0.0458 -4.78643,1.62297 -4.85054,5.01031 -0.0657,3.47132 1.29908,5.03026 4.7785,4.87146 2.70719,-0.1236 5.42447,-0.0208 8.1325,-0.13323 3.15183,-0.13099 6.02753,-1.12898 6.36256,-4.70418 0.37467,-3.99883 -2.76313,-4.59021 -6.91657,-5.02317 z"
   id="path10"
   style="stroke-width:1.26244;fill:#257db8;fill-opacity:1" />
<path
   fill="#000000"
   opacity="1"
   stroke="none"
   d="m 568.82288,809.05755 c -4.63791,4.26913 -7.64406,3.9469 -12.0136,-1.2535 -6.46915,-7.69947 -12.73682,-15.5683 -20.83827,-23.17222 0,6.92323 -0.11758,13.84916 0.0439,20.76862 0.0979,4.19293 -1.33726,6.23199 -5.83655,6.03735 -3.47302,-0.1501 -4.91653,-1.56179 -4.89912,-4.97979 0.0642,-12.62001 0.0253,-25.24033 0.0602,-37.86049 0.005,-1.90037 -0.002,-4.04437 2.461,-4.48989 3.17351,-0.57374 6.28423,-0.62398 8.62765,2.29988 5.12828,6.39881 10.27821,12.78144 15.50758,19.09749 1.53852,1.85829 2.55863,4.35466 6.33924,5.31413 0,-6.96923 0.073,-13.58826 -0.0269,-20.20474 -0.0616,-4.07211 0.64424,-6.88987 5.80026,-6.8122 5.23746,0.0788 4.89411,3.39504 4.88849,6.84063 -0.0207,12.6197 -0.0298,25.2394 -0.11389,38.41473 z"
   id="path11"
   style="stroke-width:1.26244;fill:#257db8;fill-opacity:1" />
<path
   fill="#000000"
   opacity="1"
   stroke="none"
   d="m 624.00463,802.19257 c -2.64015,-2.96039 -4.23593,-6.30527 -7.74616,-8.18398 -4.71998,2.70056 -7.5832,6.34996 -6.99097,12.13889 0.37341,3.64963 -1.15641,5.33694 -5.04929,5.34618 -3.92941,0.009 -5.78878,-1.24032 -5.74116,-5.4267 0.14108,-12.40395 0.11512,-24.81083 0.027,-37.21571 -0.0279,-3.93017 1.92988,-4.99667 5.49552,-5.02217 3.71435,-0.0265 5.4284,1.36569 5.31567,5.17381 -0.13608,4.59438 -0.0322,9.19584 -0.0322,13.79423 0.55748,0.40083 1.11488,0.80166 1.67236,1.20257 4.88949,-5.14385 9.8011,-10.26696 14.66231,-15.43739 5.00144,-5.3196 7.4005,-6.01485 16.1136,-3.90413 -4.70572,5.25334 -8.80048,10.42684 -13.53455,14.92822 -4.14377,3.94019 -3.87987,6.98919 -0.30321,11.08911 5.31282,6.09006 10.12973,12.61277 15.44732,19.31647 -9.96367,4.28447 -14.59272,-1.3932 -19.33627,-7.7994 z"
   id="path12"
   style="stroke-width:1.26244;fill:#257db8;fill-opacity:1" />
<path
   fill="#000000"
   opacity="1"
   stroke="none"
   d="m 472.79222,801.1542 c -6.00915,-0.73208 -9.6152,0.7985 -11.57524,6.60469 -2.03579,6.03042 -6.73904,4.83733 -11.90322,2.58529 4.25753,-9.67125 8.37603,-19.02914 12.49691,-28.38602 1.77623,-4.03327 3.69609,-8.01022 5.29645,-12.112 1.50022,-3.84534 3.44902,-6.20786 8.20536,-6.195 4.72471,0.0129 6.62804,2.37709 8.26866,6.16226 5.8204,13.4286 11.82639,26.77676 17.77043,40.17424 -7.85569,3.09523 -10.46533,2.36122 -13.22318,-4.42671 -1.47202,-3.6232 -3.64149,-4.72113 -7.19461,-4.47302 -2.50847,0.17522 -5.0377,0.0539 -8.14156,0.0663 m 7.63382,-10.99403 c -0.56727,-4.37347 -2.36022,-8.20686 -5.10243,-12.29954 -3.03601,4.33678 -5.05677,8.3847 -5.49216,13.65622 3.74224,0.14532 6.99119,1.06572 10.59459,-1.35668 z"
   id="path13"
   style="stroke-width:1.26244;fill:#257db8;fill-opacity:1" />
<path
   fill="#000000"
   opacity="1"
   stroke="none"
   d="m 516.77813,216.03374 c 36.81349,0.007 72.99583,0.002 109.1781,0.0257 9.14352,0.006 9.46822,0.30906 9.51577,9.66224 0.0641,12.6212 0.0667,25.24333 -0.009,37.86442 -0.0498,8.24905 -0.53922,8.69746 -8.47778,8.75309 -6.94157,0.0486 -13.88885,-0.13935 -20.82379,0.0819 -4.33448,0.13831 -6.26736,-1.64439 -6.09059,-5.89311 0.009,-0.20958 -0.008,-0.42059 -0.0187,-0.63064 -0.69171,-14.093 -0.69179,-14.09878 -14.69035,-14.10378 -8.20401,-0.003 -16.41041,0.13861 -24.61096,-0.0246 -4.34511,-0.0865 -5.98295,1.67459 -5.91722,5.99701 0.0621,4.09392 0.77115,8.32152 -0.71051,12.30937 -3.31599,0.76306 -4.90405,-1.6269 -6.82738,-3.01556 -9.71949,-7.01766 -19.43167,-14.05038 -28.98126,-21.29558 -3.55677,-2.69848 -6.48164,-2.86892 -10.1315,-0.13037 -9.92183,7.44468 -20.03726,14.6319 -30.0998,21.88812 -1.64763,1.18808 -2.95622,3.09658 -5.75364,2.79434 -2.38437,-3.7053 -1.09573,-7.99825 -1.0962,-12.01229 -5.4e-4,-4.39042 -1.15225,-6.57708 -6.05129,-6.46885 -11.14356,0.24626 -22.29774,0.17283 -33.44469,0.0174 -4.08956,-0.0571 -5.42215,1.59119 -5.58154,5.59819 -0.59081,14.85601 -0.71031,14.85127 -15.25981,14.87709 -19.55469,0.0347 -19.55295,0.0347 -19.52483,-19.49478 0.0137,-9.46629 0.012,-18.93255 0.0312,-28.39885 0.0164,-8.11293 0.24484,-8.39144 8.62476,-8.39641 38.70672,-0.0229 77.41349,-0.007 116.75143,-0.004 z"
   id="path14"
   style="stroke-width:1.26244;fill:#1f7bb7;fill-opacity:1" />
<path
   fill="#000000"
   opacity="1"
   stroke="none"
   d="m 553.33619,290.28361 c 1.96901,2.34408 1.71212,4.71158 1.73131,7.00957 0.28725,34.47177 0.49059,68.94461 0.94652,103.4141 0.0556,4.20603 -2.13838,8.69565 0.95831,13.10167 4.76667,-1.83217 7.6087,-6.69281 12.31819,-7.91036 2.53066,2.16793 1.88773,4.63521 1.90776,6.84907 0.0762,8.41109 -0.16505,16.829 0.0856,25.23316 0.14339,4.80634 -1.26961,8.42831 -5.07642,11.49957 -13.57609,10.95304 -27.00153,22.09286 -40.4897,33.15512 -1.12167,0.91994 -2.17144,2.04507 -4.67205,1.56884 0,-71.89663 0,-143.94559 0,-218.32573 11.46036,8.61968 21.70359,16.32388 32.29047,24.40499 z"
   id="path15"
   style="stroke-width:1.26244;fill:#1f7bb7;fill-opacity:1" />
<path
   fill="#000000"
   opacity="1"
   stroke="none"
   d="m 492.07664,475.8717 c -10.9384,-8.92296 -21.48229,-17.61787 -32.14291,-26.16724 -3.58509,-2.87504 -5.12269,-6.31127 -4.9974,-10.91744 0.23424,-8.61601 0.0696,-17.2422 0.14594,-25.86349 0.02,-2.26124 -0.33565,-4.66673 1.62775,-6.80754 5.47124,0.91767 7.96098,7.12866 13.48231,8.23229 1.57978,-2.46817 0.89289,-5.05103 0.89632,-7.46996 0.0506,-35.74927 0.17268,-71.49985 -0.1264,-107.24676 -0.0518,-6.19655 1.88522,-10.20451 6.8963,-13.63723 6.92962,-4.74698 13.41007,-10.14598 20.15161,-15.17351 1.79245,-1.33668 3.28578,-3.38653 6.87273,-3.09627 0,72.12035 0,144.30289 0,216.90814 -5.52611,-1.2201 -8.40285,-5.74385 -12.80625,-8.76099 z"
   id="path16"
   style="stroke-width:1.26244;fill:#1f7bb7;fill-opacity:1" />
</svg>
