<?xml version="1.0" encoding="UTF-8" standalone="no"?>
<svg
   version="1.1"
   id="Layer_1"
   x="0px"
   y="0px"
   width="1024"
   viewBox="0 0 1024 429"
   enable-background="new 0 0 1024 1024"
   xml:space="preserve"
   sodipodi:docname="Gemini_Generated_Image_t5ztvrt5ztvrt5zt.svg"
   height="429"
   inkscape:version="1.4.2 (ebf0e940d0, 2025-05-08)"
   xmlns:inkscape="http://www.inkscape.org/namespaces/inkscape"
   xmlns:sodipodi="http://sodipodi.sourceforge.net/DTD/sodipodi-0.dtd"
   xmlns="http://www.w3.org/2000/svg"
   xmlns:svg="http://www.w3.org/2000/svg"><defs
   id="defs15" /><sodipodi:namedview
   id="namedview15"
   pagecolor="#ffffff"
   bordercolor="#000000"
   borderopacity="0.25"
   inkscape:showpageshadow="2"
   inkscape:pageopacity="0.0"
   inkscape:pagecheckerboard="0"
   inkscape:deskcolor="#d1d1d1"
   inkscape:zoom="0.64235991"
   inkscape:cx="505.16851"
   inkscape:cy="526.18477"
   inkscape:window-width="1920"
   inkscape:window-height="1131"
   inkscape:window-x="0"
   inkscape:window-y="0"
   inkscape:window-maximized="1"
   inkscape:current-layer="Layer_1" />
<path
   fill="#000000"
   opacity="1"
   stroke="none"
   d="M 73.877972,48.26065 C 132.60629,28.63716 191.79709,24.24312 252.21894,34.55176 c 28.00489,4.77793 54.89999,12.92371 81.19256,23.51256 8.71846,3.51112 12.91933,8.09999 13.84944,18.45592 2.41153,26.84882 3.2444,53.67267 2.60028,80.55172 -1.50164,62.6565 -23.35464,117.19997 -66.12652,163.17609 -25.25159,27.1434 -54.00157,49.7997 -86.62905,67.53132 -4.35606,2.36721 -7.95995,2.71392 -12.24986,0.25938 C 116.47828,348.91734 61.998445,297.81673 39.615163,219.20165 33.960698,199.34198 31.304657,178.90851 30.926556,158.29571 30.398164,129.49134 30.40717,100.69015 34.078616,72.00049 34.840528,66.0468 37.072562,62.30186 42.523161,60.22733 52.776038,56.32488 63.008743,52.36951 73.877972,48.26065 M 261.1348,65.73993 c -38.75643,-8.45647 -77.88538,-8.83859 -117.06373,-4.41774 -24.33401,2.74587 -47.944763,9.17434 -70.91376,17.70738 -5.480027,2.03589 -11.588682,3.42187 -11.706499,11.66952 -0.239005,16.7264 -2.085443,33.39012 -1.965311,50.15999 0.173505,24.2184 1.701606,48.22099 8.434083,71.64058 16.429268,57.15094 52.757547,99.32392 101.030047,131.80984 26.30168,17.70033 16.54329,18.08235 43.39678,-0.15112 44.87789,-30.47207 79.77378,-69.55957 97.36006,-121.99239 14.56621,-43.42857 12.80097,-88.08964 9.04063,-132.83196 -0.39923,-4.75051 -3.15873,-7.10096 -7.44572,-8.68868 C 295.334,74.73161 279.20045,69.41872 261.1348,65.73993 Z"
   id="path1"
   style="fill:#1d7ab8;fill-opacity:1;stroke-width:1.64843" />
<path
   fill="#000000"
   opacity="1"
   stroke="none"
   d="m 525.69409,119.76515 c 0.26904,-22.0647 -1.33039,-19.87029 19.17521,-19.8717 15.88488,-0.001 31.78415,-0.81989 47.64539,1.35993 33.46518,4.59919 50.71174,35.02754 36.40125,64.16593 -3.69972,7.5333 -10.42998,11.73015 -17.20069,17.51913 7.97242,12.15251 15.86023,24.17604 24.42355,37.22949 -8.17375,3.23861 -15.88327,0.82593 -23.15966,1.91435 -9.30212,1.39147 -14.04861,-3.60755 -18.18689,-10.80416 -3.68302,-6.40483 -8.16761,-12.34649 -12.24292,-18.52922 -1.92723,-2.92379 -4.32391,-4.52665 -8.0357,-4.82949 -14.52149,-1.18481 -15.16822,-0.6971 -15.19438,14.07622 -0.0333,18.78865 -0.0334,18.78845 -18.98173,18.95406 -1.09718,0.01 -2.19446,0.0207 -3.29143,0.0437 -10.67055,0.22377 -10.30452,0.22266 -10.35935,-10.74429 -0.14961,-29.89118 -0.63829,-59.78079 -0.99265,-90.48391 m 50.27298,8.16625 c -3.28368,-0.01 -6.56968,0.0532 -9.85065,-0.0466 -4.75504,-0.14463 -7.05132,1.87355 -6.91509,6.83228 0.20284,7.38389 0.0981,14.77598 0.14579,22.16445 0.0177,2.73827 0.88579,5.08002 4.04653,5.09768 8.71776,0.0486 17.54428,1.29588 26.06192,-1.59189 7.04981,-2.3902 10.4335,-7.39989 10.50836,-14.89828 0.0727,-7.29087 -2.3987,-12.66886 -9.55768,-15.55402 -4.21374,-1.69823 -8.55114,-1.628 -14.43918,-2.00364 z"
   id="path2"
   style="fill:#0a345a;fill-opacity:1;stroke-width:1.64843" />
<path
   fill="#000000"
   opacity="1"
   stroke="none"
   d="m 653.99196,176.91991 c -0.0603,-23.28804 0.0917,-45.80846 -0.24137,-68.32168 -0.0961,-6.48965 2.32384,-8.82199 8.58978,-8.79035 29.16148,0.14735 23.46723,-2.3987 23.91374,22.31683 0.28273,15.64839 -0.20172,31.3164 0.32679,46.95302 0.61847,18.2951 8.73416,26.74805 24.39035,26.57213 13.59344,-0.15278 21.86297,-7.97373 22.15213,-22.13236 0.42619,-20.86212 0.19609,-41.73733 0.28533,-62.60674 0.0446,-10.42656 0.66545,-11.11641 11.32926,-11.10756 24.75778,0.0206 21.84928,-2.45675 21.85562,21.21165 0.005,18.38525 1.35303,36.84752 -0.73146,55.14503 -3.33479,29.27221 -17.44145,43.72795 -46.82147,47.17925 -34.91812,4.10157 -60.91122,-11.78654 -65.0487,-46.41922 z"
   id="path3"
   style="fill:#0a345a;fill-opacity:1;stroke-width:1.64843" />
<path
   fill="#000000"
   opacity="1"
   stroke="none"
   d="m 882.42749,172.53583 c 5.54545,19.58459 -0.72713,36.26371 -18.03809,44.26098 -26.37522,12.18466 -52.41089,8.23432 -77.66278,-4.37543 -2.27162,-1.1344 -4.44384,-2.92963 -3.36387,-5.83939 2.29104,-6.17277 4.67485,-12.33623 7.4921,-18.28001 2.02291,-4.26772 5.19622,-1.61004 7.65931,-0.27286 11.33037,6.15084 23.25917,9.75694 36.27428,9.07841 2.46531,-0.12858 4.9951,-0.0825 7.37036,-0.64442 4.38539,-1.03737 8.86878,-2.71211 9.26388,-7.97036 0.38615,-5.14089 -3.3027,-8.06751 -7.75701,-9.37552 -10.26055,-3.01298 -20.70532,-5.40555 -30.94273,-8.49007 -23.03429,-6.94019 -33.19513,-23.59325 -26.95837,-44.05891 3.7304,-12.2411 12.36747,-20.05798 24.18017,-23.99655 21.77915,-7.26159 43.229,-5.10617 64.31192,3.33596 4.89046,1.95837 6.1292,5.0121 4.0586,9.68645 -0.33212,0.74971 -0.54472,1.5526 -0.80721,2.3327 -5.32984,15.83915 -5.32733,15.83226 -20.71951,10.59388 -8.69643,-2.95962 -17.65425,-4.15625 -26.77898,-3.23741 -6.35639,0.6401 -12.36949,3.0311 -13.1603,10.16648 -0.74433,6.71668 5.42622,8.37819 10.32796,9.7931 9.48422,2.73777 19.1916,4.69357 28.71507,7.30662 11.19232,3.07104 20.90513,8.36833 26.5352,19.98635 z"
   id="path4"
   style="fill:#0a345a;fill-opacity:1;stroke-width:1.64843" />
<path
   fill="#000000"
   opacity="1"
   stroke="none"
   d="m 928.41096,326.46066 c 2.12604,-0.39319 3.68593,-0.60367 6.2276,-0.94646 -1.89262,4.53611 -5.41546,5.48609 -8.43322,6.73962 -47.72759,19.82416 -97.44831,26.50864 -148.93789,24.27223 -42.82364,-1.86012 -83.82529,-13.33325 -125.60648,-20.7836 -59.36602,-10.58593 -118.79985,-12.56578 -178.04373,1.37417 -1.32859,0.3126 -2.70019,0.48002 -4.06192,0.59462 -0.49637,0.0417 -1.02243,-0.26884 -2.21433,-0.61736 2.08318,-3.45151 5.5791,-4.10287 8.63063,-5.21333 46.23102,-16.82339 93.95167,-19.71902 142.69836,-17.16648 46.30482,2.42476 90.78716,15.1973 136.40128,21.16713 58.10062,7.60398 115.97114,8.55295 173.3397,-9.42054 z"
   id="path5"
   style="fill:#1d7ab8;fill-opacity:1;stroke-width:1.64843" />
<path
   fill="#000000"
   opacity="1"
   stroke="none"
   d="m 474.98013,135.10008 c 0.002,26.0096 -0.16248,51.26451 0.14071,76.51379 0.0877,7.30466 -1.76655,10.91111 -9.826,9.63031 -4.28604,-0.68124 -8.76591,-0.29379 -13.1517,-0.1647 -10.20119,0.30033 -10.51419,0.0938 -10.53326,-10.4172 -0.0439,-24.15482 -0.31824,-48.31476 0.11279,-72.46168 0.14292,-8.00582 -2.55178,-10.828 -10.39608,-10.24515 -6.54584,0.48646 -13.16698,-0.12778 -19.75297,-0.0648 -5.34775,0.0511 -7.8294,-1.98699 -8.08903,-7.74061 -0.91748,-20.33336 -1.08672,-20.3491 19.43091,-20.36072 26.35073,-0.0149 52.70161,-0.0239 79.05219,0.0403 9.74793,0.0238 11.12581,1.20101 10.467,11.01047 -1.36581,20.33833 1.16228,16.96254 -17.65455,17.28616 -4.39027,0.0755 -8.78451,0.0824 -13.17408,-0.012 -4.32563,-0.0931 -6.8431,1.56744 -6.62593,6.98587 z"
   id="path6"
   style="fill:#0a345a;fill-opacity:1;stroke-width:1.64843" />
<path
   fill="#000000"
   opacity="1"
   stroke="none"
   d="m 941.64813,220.97484 c -1.80972,0.0481 -2.90851,0.0703 -4.00488,0.13361 -10.81472,0.6234 -11.48399,0.11873 -11.53128,-10.38078 -0.10907,-24.16905 -0.40074,-48.34368 0.0193,-72.50498 0.13774,-7.927 -2.28017,-10.89486 -10.24907,-10.28611 -7.09549,0.5421 -14.27126,0.0453 -21.41152,-0.0139 -4.27834,-0.0355 -6.55168,-1.87461 -6.49855,-6.50052 0.28191,-24.61657 -3.27775,-21.38586 19.49897,-21.59392 26.08979,-0.23846 52.18582,0.13466 78.2738,-0.18689 7.63316,-0.0941 10.87429,2.05324 10.55675,10.26432 -0.73225,18.93841 2.63675,17.86352 -17.59509,17.96534 -23.63666,0.11898 -20.03302,-2.21649 -20.25326,20.06689 -0.20354,20.59696 -0.0371,41.19739 -0.0765,61.79621 -0.0217,11.33227 -0.0616,11.33096 -11.07289,11.24343 -1.64783,-0.0131 -3.29596,-0.007 -5.65582,-0.003 z"
   id="path7"
   style="fill:#0a345a;fill-opacity:1;stroke-width:1.64843" />
<path
   fill="#000000"
   opacity="1"
   stroke="none"
   d="m 703.98805,356.79559 c 32.88132,7.4261 65.49633,9.62116 99.96542,7.12396 -3.3516,4.6995 -6.9826,4.61901 -10.23711,5.15457 -39.57154,6.51183 -78.66206,4.03033 -117.23311,-6.67472 -32.77005,-9.09486 -65.63397,-17.60364 -99.77969,-19.69638 -1.01408,-0.0621 -1.99988,-0.58486 -3.48864,-1.04385 2.14073,-4.27885 5.75956,-2.96183 8.62298,-3.11275 35.49363,-1.87099 69.81623,4.95556 103.83508,14.07064 5.81972,1.55949 11.75233,2.69782 18.31507,4.17853 z"
   id="path8"
   style="fill:#1d7ab8;fill-opacity:1;stroke-width:1.64843" />
<path
   fill="#000000"
   opacity="1"
   stroke="none"
   d="m 589.95521,244.64994 c 2.97118,0.0595 5.17671,-0.0308 7.34701,0.20444 14.73408,1.59783 19.40622,10.12261 12.4868,23.54229 1.01609,1.29739 2.25211,2.69912 3.29284,4.23346 5.7001,8.40335 2.45555,18.0892 -7.30264,20.81851 -9.6443,2.69732 -19.59697,1.17646 -29.42036,1.24568 -3.43903,0.0243 -4.72758,-2.27444 -4.73613,-5.42622 -0.035,-12.87003 -0.003,-25.74047 -0.0941,-38.61 -0.0303,-4.28176 2.27293,-5.83239 6.1448,-5.88099 3.83313,-0.048 7.66656,-0.0846 12.28175,-0.12717 m 14.03573,35.45811 c -2.97853,-4.94651 -15.9532,-7.74374 -20.00235,-4.31235 -2.71331,2.29939 -1.825,9.32093 1.46975,9.47698 6.27751,0.29721 13.37007,2.777 18.5326,-5.16463 m -3.60656,-23.12626 c -5.48709,-4.48842 -11.4192,-3.16456 -17.5313,-1.81826 -0.40204,4.42644 -2.00832,9.55485 4.41699,9.27726 5.04108,-0.21772 12.75945,3.3527 13.11431,-7.459 z"
   id="path9"
   style="fill:#1d7ab8;fill-opacity:1;stroke-width:1.64843" />
<path
   fill="#000000"
   opacity="1"
   stroke="none"
   d="m 724.44717,272.06862 c -0.0993,5.81881 -0.17949,11.03707 -0.1641,16.25523 0.0105,3.52576 -1.16066,5.94669 -5.14642,5.8331 -3.61682,-0.10303 -5.60854,-1.99685 -5.62071,-5.6686 -0.0419,-12.6354 -0.0539,-25.27111 -0.0359,-37.90661 0.003,-2.29517 0.52298,-4.4852 3.06405,-5.26515 2.87902,-0.88367 5.6036,-0.19891 7.52208,2.04757 4.27673,5.00767 8.32658,10.20873 12.4877,15.31571 2.71272,3.32927 5.45833,6.63156 9.82148,11.92689 0,-9.18892 10e-4,-15.92723 -3e-4,-22.66565 -8e-4,-3.9606 0.83518,-7.24238 5.83391,-7.03612 4.53419,0.18714 5.17379,3.32312 5.08042,6.9001 -0.29329,11.24483 1.31882,22.48867 0.0178,33.7319 -0.35396,3.05871 1.22958,7.07576 -3.33249,8.24126 -3.94169,1.00713 -6.87263,-1.0514 -9.24305,-4.02641 -5.13375,-6.44301 -10.22192,-12.92295 -15.42307,-19.31103 -1.14105,-1.40153 -1.73728,-3.51379 -4.33408,-3.82166 -0.16048,1.66513 -0.31401,3.25692 -0.52731,5.44947 z"
   id="path10"
   style="fill:#1d7ab8;fill-opacity:1;stroke-width:1.64843" />
<path
   fill="#000000"
   opacity="1"
   stroke="none"
   d="m 804.16325,260.92741 c 3.68895,-4.06404 7.21732,-7.55126 10.27192,-11.41317 3.9602,-5.00667 8.70216,-6.08232 14.96156,-3.98223 -1.65407,6.05112 -6.30045,9.88123 -10.29134,13.44985 -6.35196,5.67977 -5.45399,10.00319 -0.3943,15.6903 4.68391,5.26464 8.56302,11.24524 13.22861,17.48864 -16.25825,5.83713 -17.50373,-11.00025 -26.4376,-16.07705 -4.89791,2.10723 -7.50287,5.71619 -7.14278,11.33046 0.24157,3.76784 -0.85691,6.5386 -5.23204,6.69425 -4.72888,0.16832 -6.08564,-2.87591 -6.36182,-6.83621 -0.87976,-12.6179 0.12073,-25.20692 0.63366,-37.80288 0.14065,-3.45312 2.13439,-4.76591 5.40228,-4.68552 3.30511,0.0815 5.20447,1.74895 5.29724,4.99802 0.14639,5.13455 0.0388,10.27624 0.0388,15.56232 3.433,-0.1962 3.95427,-2.84019 6.02578,-4.41678 z"
   id="path11"
   style="fill:#1d7ab8;fill-opacity:1;stroke-width:1.64843" />
<path
   fill="#000000"
   opacity="1"
   stroke="none"
   d="m 667.90886,245.68524 c 8.69985,15.2474 14.60751,31.08821 21.85361,46.96575 -6.38205,2.73233 -10.37465,2.35493 -13.57553,-3.69369 -4.371,-8.25947 -22.14337,-7.95451 -26.6178,0.33535 -2.1352,3.95577 -4.95486,6.36514 -9.16398,4.58319 -5.51275,-2.3339 -1.43654,-6.13091 -0.27879,-8.90379 4.64899,-11.13507 9.91605,-22.01459 14.4587,-33.19021 2.54851,-6.26986 6.39059,-8.53172 13.32379,-6.0966 m -3.0061,17.14595 c -0.80117,-1.07635 -1.78094,-3.86623 -3.00066,-1.14225 -1.65185,3.68835 -4.50079,7.29641 -3.71421,11.90888 3.53824,0.82875 6.62161,1.41844 9.61412,-0.59894 0.53234,-3.5152 -1.44097,-6.24934 -2.89925,-10.16769 z"
   id="path12"
   style="fill:#1d7ab8;fill-opacity:1;stroke-width:1.64843" />
<path
   fill="#000000"
   opacity="1"
   stroke="none"
   d="m 210.95036,131.35569 c -20.55732,-15.60628 -20.55334,-15.60095 -41.05517,-0.29313 -4.32211,3.22714 -8.68536,6.39904 -12.4793,9.19129 -2.72866,-0.82618 -2.95434,-2.2676 -2.8659,-3.60474 0.91527,-13.83581 -2.32067,-11.73829 -12.55043,-11.86904 -6.04057,-0.0771 -12.08772,0.16782 -18.12381,-0.009 -5.45334,-0.15987 -8.5107,1.85278 -7.81019,7.66868 0.87186,7.23795 -2.23545,9.48805 -9.40282,9.44513 -19.844006,-0.11882 -19.844736,0.1639 -19.905456,-19.79412 -0.01673,-5.49258 -0.07362,-10.98526 -0.05556,-16.47774 0.0365,-11.06509 0.100511,-11.1475 10.874812,-11.16425 20.597314,-0.0321 41.195374,0.0796 61.791934,-0.0516 42.00782,-0.26763 84.02737,1.04083 126.02196,-0.84987 6.41253,-0.28876 9.81302,1.88804 9.63263,8.87521 -0.25511,9.87923 -0.28096,19.77979 0.0702,29.65429 0.26793,7.5339 -2.80572,10.63452 -10.27624,9.68746 -2.43331,-0.30843 -4.9373,-0.0552 -7.40899,-0.0657 -11.19519,-0.0477 -11.37539,-0.032 -12.39701,-11.17009 -0.38605,-4.20901 -2.21488,-5.86288 -6.19183,-5.84477 -8.78753,0.04 -17.57567,0.0706 -26.36285,0.007 -4.64176,-0.0337 -6.28943,2.34362 -6.15396,6.71371 0.0829,2.67509 -0.27532,5.36385 -0.45809,8.42579 -6.64006,-0.45085 -9.66885,-5.82853 -14.89395,-8.47403 z"
   id="path13"
   style="fill:#1d7ab8;fill-opacity:1;stroke-width:1.64843" />
<path
   fill="#000000"
   opacity="1"
   stroke="none"
   d="m 226.34194,177.44033 c 0.004,27.67247 0.004,54.52963 0.004,81.55079 5.49253,0.26733 7.39516,-5.66729 13.0201,-5.31797 1.94483,7.90904 -1.06468,16.20282 0.5833,24.07594 2.14732,10.25874 -5.45027,14.02647 -11.51081,18.91462 -9.72821,7.84625 -19.16937,16.09908 -31.33985,23.90721 0,-61.89089 0,-121.96095 0,-183.57837 9.21615,4.46175 15.58385,10.90034 23.03259,15.62998 9.70904,6.16492 5.06799,15.7732 6.2111,24.8178 z"
   id="path14"
   style="fill:#1d7ab8;fill-opacity:1;stroke-width:1.64843" />
<path
   fill="#000000"
   opacity="1"
   stroke="none"
   d="m 154.55346,249.37842 c -0.0289,-28.18605 0.0744,-55.62747 -0.18809,-83.06542 -0.0553,-5.78078 1.61618,-9.90891 6.35709,-13.26931 7.09156,-5.02654 13.88571,-10.47269 20.85594,-15.77818 3.76431,6.03181 4.86626,171.21794 1.65577,181.15331 -2.52542,1.09677 -4.08622,-0.73809 -5.7268,-2.06175 -10.24818,-8.26853 -20.3987,-16.6594 -30.71414,-24.8426 -3.71737,-2.94915 -5.67353,-6.30729 -5.52618,-11.21285 0.26134,-8.70025 0.0733,-17.41398 0.0733,-25.98425 6.00224,-1.65738 7.79807,4.78201 12.39671,4.6333 1.68505,-2.86081 0.50064,-5.92013 0.81641,-9.57225 z"
   id="path15"
   style="fill:#1d7ab8;fill-opacity:1;stroke-width:1.64843" />
</svg>
